<svg xmlns="http://www.w3.org/2000/svg" xmlns:xlink="http://www.w3.org/1999/xlink" viewBox="0 0 443.38 68.33"><defs><style>.cls-1{fill:none;}.cls-2{isolation:isolate;}.cls-13,.cls-3{fill:#fff;}.cls-4{clip-path:url(#clip-path);}.cls-5{fill:url(#linear-gradient);}.cls-6{fill:url(#linear-gradient-2);}.cls-7{fill:url(#linear-gradient-3);}.cls-8{mix-blend-mode:multiply;fill:url(#linear-gradient-4);}.cls-9{fill:url(#linear-gradient-5);}.cls-10{opacity:0.7;mix-blend-mode:screen;fill:url(#linear-gradient-6);}.cls-11{mix-blend-mode:hue;fill:url(#linear-gradient-7);}.cls-12{fill:#311b98;opacity:0.2;}.cls-13{opacity:0.3;}.cls-14{opacity:0.9;fill:url(#linear-gradient-8);}</style><clipPath id="clip-path"><path class="cls-1" d="M14.14,28.22,22,9.72a2.55,2.55,0,0,1,1-1.1L35.54.92a.59.59,0,0,1,.85.73L33.21,9.84,40,25l2.34-6.08a2.69,2.69,0,0,1,1-1.16L48,14.91a.59.59,0,0,1,.86.67l-1,6.57,5.09,29.74a4.51,4.51,0,0,1-2.54,4.85L28.66,66.88a4.48,4.48,0,0,1-3.82,0L3.32,56.73a4.51,4.51,0,0,1-2.53-4.8L4.84,20.5a2.27,2.27,0,0,1,1-1.4l6.6-3.93a.58.58,0,0,1,.85.71l-1.51,6.46Z"/></clipPath><linearGradient id="linear-gradient" x1="26.89" y1="67.78" x2="26.89" y2="14.29" gradientUnits="userSpaceOnUse"><stop offset="0.7" stop-color="#cfe4f3"/><stop offset="1" stop-color="#6bc3f9"/></linearGradient><linearGradient id="linear-gradient-2" x1="27.4" y1="67.78" x2="27.4" gradientUnits="userSpaceOnUse"><stop offset="0" stop-color="#b18cf9"/><stop offset="1" stop-color="#4f3dd5"/></linearGradient><linearGradient id="linear-gradient-3" x1="26.9" y1="67.75" x2="26.9" y2="14.11" gradientUnits="userSpaceOnUse"><stop offset="0" stop-color="#b1d6f9"/><stop offset="1" stop-color="#9193ee"/></linearGradient><linearGradient id="linear-gradient-4" x1="26.89" y1="67.78" x2="26.89" y2="14.29" gradientUnits="userSpaceOnUse"><stop offset="0" stop-color="#cfe4f3"/><stop offset="1" stop-color="#6bc3f9"/></linearGradient><linearGradient id="linear-gradient-5" x1="16.86" y1="68.33" x2="16.86" y2="14.4" xlink:href="#linear-gradient-3"/><linearGradient id="linear-gradient-6" x1="26.89" y1="67.78" x2="26.89" y2="15.71" xlink:href="#linear-gradient-3"/><linearGradient id="linear-gradient-7" x1="-3.01" y1="63.92" x2="57.04" y2="3.88" gradientUnits="userSpaceOnUse"><stop offset="0" stop-color="#a684f8"/><stop offset="0.5" stop-color="#8272fa"/><stop offset="1" stop-color="#90aefb"/></linearGradient><linearGradient id="linear-gradient-8" x1="430.61" y1="63.97" x2="376.15" y2="9.51" gradientUnits="userSpaceOnUse"><stop offset="0" stop-color="#94b2ff"/><stop offset="0.5" stop-color="#8572fe"/><stop offset="1" stop-color="#ab88fc"/></linearGradient></defs><title>Asset 9</title><g class="cls-2"><g id="Layer_2" data-name="Layer 2"><g id="Layer_1-2" data-name="Layer 1"><polygon class="cls-3" points="91.09 48.58 91.09 18.3 84.75 18.3 84.75 54.52 107.27 54.52 107.27 48.58 91.09 48.58"/><rect class="cls-3" x="124.2" y="18.3" width="6.2" height="36.22"/><polygon class="cls-3" points="170.94 24.13 170.94 18.3 147.99 18.3 147.99 54.52 154.19 54.52 154.19 38.71 169.76 38.71 169.76 32.88 154.19 32.88 154.19 24.13 170.94 24.13"/><rect class="cls-3" x="186.97" y="18.3" width="6.2" height="36.22"/><polygon class="cls-3" points="233.6 18.3 233.6 43.76 216.21 18.3 209.82 18.3 209.82 54.52 216.02 54.52 216.02 28.81 233.41 54.52 239.8 54.52 239.8 18.3 233.6 18.3"/><rect class="cls-3" x="256.45" y="18.3" width="6.2" height="36.22"/><polygon class="cls-3" points="275.46 18.3 275.46 24.13 286.64 24.13 286.64 54.52 292.84 54.52 292.84 24.13 304.03 24.13 304.03 18.3 275.46 18.3"/><polygon class="cls-3" points="338.64 18.3 329.27 33.24 319.99 18.3 312.37 18.3 326.07 39.14 326.07 54.52 332.27 54.52 332.27 39.14 345.98 18.3 338.64 18.3"/><g class="cls-4"><polygon class="cls-5" points="13.94 14.29 11.82 22.34 14.36 28.76 53.52 55.28 26.75 67.78 0.25 55.28 4.89 19.7 13.94 14.29"/><path class="cls-6" d="M33.21,9.84,37.06,0,22.84,8.54a3,3,0,0,0-1,1.32l-7.4,17.72L1.27,56.36,26.75,67.78l26.78-12.5Z"/><polygon class="cls-7" points="42.64 18.2 33.66 41.83 0.26 55.26 26.76 67.75 53.53 55.26 47.85 22.13 49.15 14.11 42.64 18.2"/><polygon class="cls-8" points="13.94 14.29 11.82 22.34 14.14 28.22 53.52 55.28 26.75 67.78 0.25 55.28 4.84 19.52 13.94 14.29"/><polygon class="cls-9" points="33.72 41.67 0 55.36 26.5 68.33 26.75 67.78 33.72 41.67"/><polygon class="cls-10" points="0.25 55.28 26.75 67.78 53.52 55.28 33.72 41.67 0.25 55.28"/><rect class="cls-11" x="0.48" y="0.83" width="52.63" height="66.58"/><path class="cls-12" d="M28.34,66.58a4,4,0,0,1-3.29,0L1.35,55.45a4.49,4.49,0,0,0,2,1.81L24.84,67.4a4.48,4.48,0,0,0,3.82,0L50.4,57.27a4.5,4.5,0,0,0,1.94-1.74Z"/><path class="cls-13" d="M43.56,17.91l5.07-3.09a.58.58,0,0,0-.82-.26L43.1,17.43a2.69,2.69,0,0,0-1,1.16l-2.07,6.29,2.43-5.72A2.46,2.46,0,0,1,43.56,17.91Z"/><path class="cls-13" d="M23.3,8.76l13.06-8c0-.43-.75-.56-1.17-.31L22.06,8.53a.79.79,0,0,0-.19.22L14.28,27.81l7.77-17.56A2.7,2.7,0,0,1,23.3,8.76Z"/><path class="cls-13" d="M6,19.4,13,15a.58.58,0,0,0-.82-.25l-6.6,3.94a2.27,2.27,0,0,0-1,1.4L.83,51.64,5.06,20.8A1.92,1.92,0,0,1,6,19.4Z"/></g><rect class="cls-14" x="363.38" y="18.5" width="80" height="36.48" rx="6.45" ry="6.45"/><path class="cls-3" d="M378.17,29.65h6.08c3.36,0,4.72,1.75,4.72,3.68A3.25,3.25,0,0,1,387,36.48a3.51,3.51,0,0,1,2.37,3.37c0,2.57-2,4.32-5,4.32h-6.27Zm5.72,5.83c1.7,0,2.38-.72,2.38-1.88s-.84-1.82-2.22-1.82h-3.21v3.7ZM380.84,42h3.09c1.74,0,2.68-.76,2.68-2.25,0-1.31-.84-2.16-2.81-2.16h-3Z"/><path class="cls-3" d="M402.24,37.72h-7v4.19H403l-.32,2.26H392.55V29.65h10V31.9H395.2v3.57h7Z"/><path class="cls-3" d="M409.79,31.9h-4.51V29.65H417V31.9h-4.5V44.17h-2.73Z"/><path class="cls-3" d="M420.83,40.47l-1.28,3.7h-2.69l5-14.52h3.4l5.23,14.52h-2.87l-1.34-3.7Zm4.86-2.26c-1.15-3.32-1.85-5.3-2.18-6.54h0c-.36,1.36-1.13,3.7-2.05,6.54Z"/></g></g></g></svg>