<svg xmlns="http://www.w3.org/2000/svg" xmlns:xlink="http://www.w3.org/1999/xlink" viewBox="0 0 374.38 89.66"><defs><linearGradient id="linear-gradient" x1="35.28" y1="88.94" x2="35.28" y2="18.76" gradientUnits="userSpaceOnUse"><stop offset=".7" stop-color="#d4e4f2"/><stop offset="1" stop-color="#81c2f5"/></linearGradient><linearGradient id="linear-gradient-2" x1="35.95" y1="88.94" x2="35.95" gradientUnits="userSpaceOnUse"><stop offset="0" stop-color="#ac8ef3"/><stop offset="1" stop-color="#4c3ece"/></linearGradient><linearGradient id="linear-gradient-3" x1="35.29" y1="88.91" x2="35.29" y2="18.51" gradientUnits="userSpaceOnUse"><stop offset="0" stop-color="#b9d6f7"/><stop offset="1" stop-color="#9294e9"/></linearGradient><linearGradient id="linear-gradient-4" x1="35.28" y1="88.94" x2="35.28" y2="18.76" gradientUnits="userSpaceOnUse"><stop offset="0" stop-color="#d4e4f2"/><stop offset="1" stop-color="#81c2f5"/></linearGradient><linearGradient id="linear-gradient-5" x1="22.12" y1="89.66" x2="22.12" y2="18.89" xlink:href="#linear-gradient-3"/><linearGradient id="linear-gradient-6" x1="35.28" y1="88.94" x2="35.28" y2="20.62" xlink:href="#linear-gradient-3"/><linearGradient id="linear-gradient-7" x1="-3.94" y1="83.88" x2="74.84" y2="5.09" gradientUnits="userSpaceOnUse"><stop offset="0" stop-color="#a286f2"/><stop offset=".5" stop-color="#8073f3"/><stop offset="1" stop-color="#97aef6"/></linearGradient><clipPath id="clip-path"><path d="M18.55 37l10.61-24.88a.71.71 0 01.25-.29L46.64 1.2a.77.77 0 011.11 1l-4.17 10.71 8.89 19.92 3.07-8a3.51 3.51 0 011.24-1.53L63 19.56a.78.78 0 011.14.88l-1.31 8.63 6.67 39a5.91 5.91 0 01-3.32 6.37L37.61 87.77a5.92 5.92 0 01-5 0L4.36 74.44A5.9 5.9 0 011 68.15L6.35 26.9a3 3 0 011.37-1.84l8.65-5.16a.78.78 0 011.12.94l-2 8.47z" fill="none"/></clipPath><style>.cls-3{fill:#fff}</style></defs><g style="isolation:isolate"><g id="Layer_2" data-name="Layer 2"><g id="Layer_2-2" data-name="Layer 2"><path class="cls-3" d="M119.49 64.87V34.6h-6.34v36.21h22.52v-5.94h-16.18zM152.6 34.6h6.2v36.22h-6.2zM199.34 40.42V34.6h-22.95v36.21h6.2V55h15.57v-5.82h-15.57v-8.76h16.75zM215.37 34.6h6.2v36.22h-6.2zM262 34.6v25.46L244.61 34.6h-6.39v36.21h6.2v-25.7l17.39 25.7h6.39V34.6H262zM289.65 69.41h-3.4V36h3.4z"/><path class="cls-3" d="M284.85 34.6v36.21h6.2V34.6zm3.4 33.4h-.6V37.4h.6zM303.86 34.6v5.82h11.18v30.39h6.2V40.42h11.19V34.6h-28.57zM367.04 34.6l-9.37 14.94-9.27-14.94h-7.63l13.7 20.84v15.37h6.2V55.44l13.71-20.84h-7.34z"/><g clip-path="url(#clip-path)"><path fill="url(#linear-gradient)" d="M18.29 18.76l-2.78 10.55 3.34 8.43 51.39 34.8-35.14 16.4L.33 72.54l6.09-46.69 11.87-7.09z"/><path d="M43.58 12.91L48.64 0 30 11.21a4 4 0 00-1.35 1.73L18.9 36.19 1.67 74 35.1 89l35.14-16.4z" fill="url(#linear-gradient-2)"/><path fill="url(#linear-gradient-3)" d="M55.95 23.88L44.17 54.89.34 72.51l34.77 16.4 35.14-16.4-7.45-43.48 1.69-10.51-8.54 5.36z"/><path style="mix-blend-mode:multiply" fill="url(#linear-gradient-4)" d="M18.29 18.76l-2.78 10.55 3.04 7.72 51.69 35.51-35.14 16.4L.33 72.54l6.02-46.92 11.94-6.86z"/><path fill="url(#linear-gradient-5)" d="M44.24 54.69L0 72.65l34.77 17.01.33-.72 9.14-34.25z"/><path style="mix-blend-mode:screen" opacity=".7" fill="url(#linear-gradient-6)" d="M.33 72.54l34.77 16.4 35.14-16.4-26-17.85L.33 72.54z"/><path style="mix-blend-mode:hue" fill="url(#linear-gradient-7)" d="M.63 1.09h69.06v87.37H.63z"/></g></g></g></g></svg>