<svg id="Layer_1" data-name="Layer 1" xmlns="http://www.w3.org/2000/svg" viewBox="0 0 19.89 14.36"><defs><style>.cls-1{fill:#fff;}</style></defs><g id="Layer_2" data-name="Layer 2"><g id="Layer_3" data-name="Layer 3"><path class="cls-1" d="M9,12a.59.59,0,1,1-.59.59A.58.58,0,0,1,9,12Zm9.14-3.6a.58.58,0,0,1-.59-.59h0a.59.59,0,0,1,1.18,0,.61.61,0,0,1-.64.56Zm0-2.4a1.81,1.81,0,0,0-1.8,1.8h0a1.71,1.71,0,0,0,.09.55l-6,3.14A1.8,1.8,0,0,0,9,10.73a1.83,1.83,0,0,0-1.61,1L2,8.93a2.36,2.36,0,0,1-.93-2.09,1.16,1.16,0,0,1,.4-.9A.56.56,0,0,1,2,6H2L8.27,9.27a1,1,0,0,0,1-.07l9.57-5a.42.42,0,0,0,.31-.4.46.46,0,0,0-.28-.4l-2.2-1C14.92,1.59,12.93.66,12.06.19a1.46,1.46,0,0,0-1.46,0l-.22.1C6.44,2.28,1.22,4.85.91,5A2.1,2.1,0,0,0,0,6.81,3.36,3.36,0,0,0,1.53,9.89l5.65,2.92A1.82,1.82,0,0,0,9,14.36a1.79,1.79,0,0,0,1.8-1.77L17,9.24a1.88,1.88,0,0,0,1.12.37,1.82,1.82,0,1,0,0-3.64Z"/></g></g></svg>