<svg xmlns="http://www.w3.org/2000/svg" xmlns:xlink="http://www.w3.org/1999/xlink" viewBox="0 0 53.53 68.33"><defs><style>.cls-1{fill:none;}.cls-2{isolation:isolate;}.cls-3{clip-path:url(#clip-path);}.cls-4{fill:url(#linear-gradient);}.cls-5{fill:url(#linear-gradient-2);}.cls-6{fill:url(#linear-gradient-3);}.cls-7{mix-blend-mode:multiply;fill:url(#linear-gradient-4);}.cls-8{fill:url(#linear-gradient-5);}.cls-9{opacity:0.7;mix-blend-mode:screen;fill:url(#linear-gradient-6);}.cls-10{mix-blend-mode:hue;fill:url(#linear-gradient-7);}.cls-11{fill:#311b98;opacity:0.2;}.cls-12{fill:#fff;opacity:0.3;}</style><clipPath id="clip-path"><path class="cls-1" d="M14.14,28.22,22,9.72a2.55,2.55,0,0,1,1-1.1L35.54.92a.59.59,0,0,1,.85.73L33.21,9.84,40,25l2.34-6.08a2.69,2.69,0,0,1,1-1.16L48,14.91a.59.59,0,0,1,.86.67l-1,6.57,5.09,29.74a4.51,4.51,0,0,1-2.54,4.85L28.66,66.88a4.48,4.48,0,0,1-3.82,0L3.32,56.73a4.51,4.51,0,0,1-2.53-4.8L4.84,20.5a2.27,2.27,0,0,1,1-1.4l6.6-3.93a.58.58,0,0,1,.85.71l-1.51,6.46Z"/></clipPath><linearGradient id="linear-gradient" x1="26.89" y1="67.78" x2="26.89" y2="14.29" gradientUnits="userSpaceOnUse"><stop offset="0.7" stop-color="#cfe4f3"/><stop offset="1" stop-color="#6bc3f9"/></linearGradient><linearGradient id="linear-gradient-2" x1="27.4" y1="67.78" x2="27.4" gradientUnits="userSpaceOnUse"><stop offset="0" stop-color="#b18cf9"/><stop offset="1" stop-color="#4f3dd5"/></linearGradient><linearGradient id="linear-gradient-3" x1="26.9" y1="67.75" x2="26.9" y2="14.11" gradientUnits="userSpaceOnUse"><stop offset="0" stop-color="#b1d6f9"/><stop offset="1" stop-color="#9193ee"/></linearGradient><linearGradient id="linear-gradient-4" x1="26.89" y1="67.78" x2="26.89" y2="14.29" gradientUnits="userSpaceOnUse"><stop offset="0" stop-color="#cfe4f3"/><stop offset="1" stop-color="#6bc3f9"/></linearGradient><linearGradient id="linear-gradient-5" x1="16.86" y1="68.33" x2="16.86" y2="14.4" xlink:href="#linear-gradient-3"/><linearGradient id="linear-gradient-6" x1="26.89" y1="67.78" x2="26.89" y2="15.71" xlink:href="#linear-gradient-3"/><linearGradient id="linear-gradient-7" x1="-3.01" y1="63.92" x2="57.04" y2="3.88" gradientUnits="userSpaceOnUse"><stop offset="0" stop-color="#a684f8"/><stop offset="0.5" stop-color="#8272fa"/><stop offset="1" stop-color="#90aefb"/></linearGradient></defs><title>Asset 11</title><g class="cls-2"><g id="Layer_2" data-name="Layer 2"><g id="Layer_1-2" data-name="Layer 1"><g class="cls-3"><polygon class="cls-4" points="13.94 14.29 11.82 22.34 14.36 28.76 53.52 55.28 26.75 67.78 0.25 55.28 4.89 19.7 13.94 14.29"/><path class="cls-5" d="M33.21,9.84,37.06,0,22.84,8.54a3,3,0,0,0-1,1.32l-7.4,17.72L1.27,56.36,26.75,67.78l26.78-12.5Z"/><polygon class="cls-6" points="42.64 18.2 33.66 41.83 0.26 55.26 26.76 67.75 53.53 55.26 47.85 22.13 49.15 14.11 42.64 18.2"/><polygon class="cls-7" points="13.94 14.29 11.82 22.34 14.14 28.22 53.52 55.28 26.75 67.78 0.25 55.28 4.84 19.52 13.94 14.29"/><polygon class="cls-8" points="33.72 41.67 0 55.36 26.5 68.33 26.75 67.78 33.72 41.67"/><polygon class="cls-9" points="0.25 55.28 26.75 67.78 53.52 55.28 33.72 41.67 0.25 55.28"/><rect class="cls-10" x="0.48" y="0.83" width="52.63" height="66.58"/><path class="cls-11" d="M28.34,66.58a4,4,0,0,1-3.29,0L1.35,55.45a4.49,4.49,0,0,0,2,1.81L24.84,67.4a4.48,4.48,0,0,0,3.82,0L50.4,57.27a4.5,4.5,0,0,0,1.94-1.74Z"/><path class="cls-12" d="M43.56,17.91l5.07-3.09a.58.58,0,0,0-.82-.26L43.1,17.43a2.69,2.69,0,0,0-1,1.16l-2.07,6.29,2.43-5.72A2.46,2.46,0,0,1,43.56,17.91Z"/><path class="cls-12" d="M23.3,8.76l13.06-8c0-.43-.75-.56-1.17-.31L22.06,8.53a.79.79,0,0,0-.19.22L14.28,27.81l7.77-17.56A2.7,2.7,0,0,1,23.3,8.76Z"/><path class="cls-12" d="M6,19.4,13,15a.58.58,0,0,0-.82-.25l-6.6,3.94a2.27,2.27,0,0,0-1,1.4L.83,51.64,5.06,20.8A1.92,1.92,0,0,1,6,19.4Z"/></g></g></g></g></svg>